# xmcd
#
# Track frame offsets: 
#        150
#        13860
#        27570
#        40297
#        57175
#        73147
#        88375
#        101472
#        117127
#        133697
#        151937
#        163730
#
# Disc length: 2391 seconds
#
# Revision: 0
# Processed by: cddbd v1.5.2PL0 Copyright (c) Steve Scherf et al.
# Submitted via: ExactAudioCopy v0.95a3
#
DISCID=a409550c
DTITLE=Curb Instore Play - Curb Instore Play Vol 1
DYEAR=1996
DGENRE=Country
TTITLE0=Tim McGraw - She Never Lets It Go To Her Heart
TTITLE1=Tim McGraw - Renegade
TTITLE2=LeAnn Rimes - Blue
TTITLE3=LeAnn Rimes - One Way Ticket (Because I Can)
TTITLE4=Jeff Carson - The Car
TTITLE5=Jeff Carson - Not On Your Love
TTITLE6=Jo Dee Messina - You're Not In Kansas Anymore
TTITLE7=Jo Dee Messina - Heads Carolina, Tails California
TTITLE8=Sawyer Brown - She's Gettin' There
TTITLE9=Sawyer Brown - Treat Her Right
TTITLE10=Junior Brown - Venom Wearin' Denim
TTITLE11=David Kersh - Goodnight Sweetheart
EXTD=
EXTT0=
EXTT1=
EXTT2=
EXTT3=
EXTT4=
EXTT5=
EXTT6=
EXTT7=
EXTT8=
EXTT9=
EXTT10=
EXTT11=
PLAYORDER=
